# xmcd
#
# Track frame offsets: 
#        300
#        18354
#        36085
#        51851
#        65785
#        81019
#        98671
#        114868
#        130125
#        145382
#        162143
#        179709
#        198440
#        215493
#
# Disc length: 3102 seconds
#
# Revision: 0
# Processed by: cddbd v1.5.2PL0 Copyright (c) Steve Scherf et al.
# Submitted via: ExactAudioCopyFreeDBPlugin 1.0
#
DISCID=c60c1a0e
DTITLE=แอ๊ด คาราบาว - รักสายัณห์น้อยๆ แต่รักนานๆ
DYEAR=1900
DGENRE=ไทยเพื่อชีวิต
TTITLE0=คืนฝนตก
TTITLE1=พบรักปากน้ำโพ
TTITLE2=รักแล้งเดือนห้า
TTITLE3=ยืนใจลอยคอยแฟน
TTITLE4=เกลียดห้องเบอร์ 5
TTITLE5=ไก่จ๋า
TTITLE6=ผู้เสียสละ
TTITLE7=รักเธอเท่าฟ้า
TTITLE8=ห้องนอนคนจน
TTITLE9=ความรักเหมือนยาขม
TTITLE10=เสียงขลุ่ยเรียกนาง
TTITLE11=อย่าลืมตัว
TTITLE12=ฝากเพลงลอยลม
TTITLE13=บาปบริสุทธิ์ (สายัณห์ สัญญา)
EXTD=
EXTT0=
EXTT1=
EXTT2=
EXTT3=
EXTT4=
EXTT5=
EXTT6=
EXTT7=
EXTT8=
EXTT9=
EXTT10=
EXTT11=
EXTT12=
EXTT13=
PLAYORDER=
